Coordinates
version=1
nRows=8
nColumns=36
inDegrees=yes

Units are S.I. units (second, meters, Newtons, ...)
If the header above contains a line with 'inDegrees', this indicates whether rotational values are in degrees (yes) or radians (no).

endheader
time	pelvis_tilt	pelvis_list	pelvis_rotation	pelvis_tx	pelvis_ty	pelvis_tz	hip_flexion_r	hip_adduction_r	hip_rotation_r	knee_angle_r	knee_angle_r_beta	ankle_angle_r	subtalar_angle_r	mtp_angle_r	hip_flexion_l	hip_adduction_l	hip_rotation_l	knee_angle_l	knee_angle_l_beta	ankle_angle_l	subtalar_angle_l	mtp_angle_l	lumbar_extension	lumbar_bending	lumbar_rotation	arm_flex_r	arm_add_r	arm_rot_r	elbow_flex_r	pro_sup_r	arm_flex_l	arm_add_l	arm_rot_l	elbow_flex_l	pro_sup_l
      0.99000000	     -8.12575145	     -0.44228931	      5.17842661	      1.11036655	      0.92996673	     -0.22265438	     31.52222469	     -2.32520127	     -4.68488914	     18.34635503	      0.32020430	      4.77350803	    -11.37249396	     -7.49452958	      0.04871432	      1.89835155	      3.76149420	      6.57966162	      0.11483676	     11.85565038	      5.05939635	     -7.49452958	      7.29765016	     -0.41895472	     -3.37691678	    -23.91698566	     -6.78260144	     -4.77549890	     16.52407692	     81.78144939	     16.06831647	    -17.48643234	      8.16000991	     34.61089809	     80.89721420
      1.00000000	     -8.09821419	     -0.17378286	      5.44069995	      1.12332028	      0.92728234	     -0.22173719	     32.04432375	     -2.88182428	     -5.00471725	     15.98506845	      0.27899208	      5.79264217	     -9.55225254	     -7.49465405	     -0.92721428	      2.04288488	      3.91336785	      6.37382988	      0.11124432	     12.75469743	      5.19216113	     -7.49465405	      7.18560376	     -0.71456222	     -3.46560995	    -24.62426530	     -6.42299078	     -4.63645504	     15.72868870	     82.00667014	     16.78714063	    -17.60719290	      8.35856325	     35.79575796	     80.86877564
      1.01000000	     -8.13247061	      0.04471387	      5.66384712	      1.13655429	      0.92461373	     -0.22069661	     32.51640687	     -3.29475541	     -5.09720919	     13.71831343	      0.23942974	      6.36501023	     -8.39042479	     -7.49473110	     -1.80458078	      2.12275557	      4.14565881	      6.25125697	      0.10910502	     13.58872043	      5.22038485	     -7.49473110	      7.26823033	     -1.01399242	     -3.73545458	    -25.17831316	     -6.18096368	     -4.46567822	     14.92421828	     82.20931558	     17.35234570	    -17.77275242	      8.42243583	     36.57801330	     80.84076400
      1.02000000	     -8.16596276	      0.26626718	      5.80962725	      1.14982982	      0.92192881	     -0.21962734	     32.90103441	     -3.63847305	     -5.17898445	     11.69076873	      0.20404241	      6.93561563	     -6.98999283	     -7.49529037	     -2.65638443	      2.20474731	      4.34408960	      6.20245499	      0.10825326	     14.43773146	      5.22431480	     -7.49529037	      7.32191828	     -1.22555018	     -4.21954855	    -25.45324730	     -6.11096160	     -3.82726479	     13.99778804	     81.31269892	     17.40015155	    -18.07005084	      8.35187188	     37.65751222	     79.54392618
      1.03000000	     -8.19340280	      0.36751798	      5.98505731	      1.16294933	      0.91922170	     -0.21857221	     33.17714066	     -3.82891054	     -5.22635703	      9.93248892	      0.17335463	      7.19594028	     -6.01222644	     -7.49536007	     -3.46171258	      2.14214690	      4.61905142	      6.23133096	      0.10875724	     15.13745809	      5.19884380	     -7.49536007	      7.48957777	     -1.37558715	     -4.46080265	    -25.85364411	     -6.00551696	     -3.48446779	     13.30300912	     81.53037152	     17.69610886	    -18.10140077	      8.26163154	     38.23147056	     79.50093822
      1.04000000	     -8.23139272	      0.41511977	      6.09227278	      1.17583546	      0.91645048	     -0.21735719	     33.39228656	     -3.90472695	     -5.36209708	      8.51158580	      0.14855520	      7.49408916	     -4.83643244	     -7.49608593	     -4.22167059	      2.01601196	      4.84895366	      6.32090299	      0.11032057	     15.78222782	      5.16758569	     -7.49608593	      7.59351703	     -1.40970966	     -5.43253524	    -25.63844922	     -6.31717997	     -1.63065853	     12.27744726	     81.52239774	     16.95193125	    -18.42676512	      7.05155014	     39.83333129	     78.24375948
      1.05000000	     -8.21284055	      0.40534835	      6.13780099	      1.18843457	      0.91366847	     -0.21603160	     33.50158521	     -3.84226656	     -5.30192403	      7.48581357	      0.13065209	      7.47764018	     -4.20746255	     -7.49657250	     -4.98489022	      1.83458980	      5.10304499	      6.51116928	      0.11364134	     16.30558170	      5.06558720	     -7.49657250	      7.69918020	     -1.33536169	     -5.69429907	    -25.74407044	     -6.39420196	     -1.03400117	     11.71642462	     79.94491267	     16.88566827	    -18.35682792	      6.82204783	     40.32703386	     76.84808618
      1.06000000	     -8.16211554	      0.23086249	      6.17625841	      1.20090061	      0.91095838	     -0.21442894	     33.50052097	     -3.57318845	     -5.36976777	      6.81830251	      0.11900183	      7.25926969	     -3.68676697	     -7.49704199	     -5.71545197	      1.45160363	      5.26233158	      6.79265260	      0.11855415	     16.75711116	      4.93928022	     -7.49704199	      7.74424962	     -1.09497613	     -6.03032670	    -25.81998585	     -6.51660328	     -0.51562765	     11.58367628	     78.63984952	     16.75134479	    -18.33592755	      6.62720373	     40.86335457	     75.69677509
